<?xml version="1.0" encoding="UTF-8" standalone="no" ?>
<!DOCTYPE svg PUBLIC "-//W3C//DTD SVG 1.1//EN" "http://www.w3.org/Graphics/SVG/1.1/DTD/svg11.dtd">
<svg xmlns="http://www.w3.org/2000/svg" xmlns:xlink="http://www.w3.org/1999/xlink" version="1.1" width="530" height="180" viewBox="0 0 530 180" xml:space="preserve">
<defs>
</defs>
<g transform="matrix(0.67 0 0 1 264.83 83.67)"  >
		<g transform="matrix(0.13 0 0 -0.13 21.02 -60.51)"  >
<path style="stroke: none; stroke-width: 1; stroke-dasharray: none; stroke-linecap: butt; stroke-dashoffset: 0; stroke-linejoin: miter; stroke-miterlimit: 4; fill: rgb(18,62,209); fill-rule: nonzero; opacity: 1;"  transform=" translate(-3077.68, -1163.83)" d="M 3006 1291 c -120 -42 -176 -146 -117 -215 c 50 -59 203 -76 296 -32 c 74 34 105 75 105 138 c 0 43 -4 54 -30 78 c -53 50 -163 63 -254 31 z" stroke-linecap="round" />
</g>
		<g transform="matrix(0.13 0 0 -0.13 -208 34.7)"  >
<path style="stroke: none; stroke-width: 1; stroke-dasharray: none; stroke-linecap: butt; stroke-dashoffset: 0; stroke-linejoin: miter; stroke-miterlimit: 4; fill: rgb(18,62,209); fill-rule: nonzero; opacity: 1;"  transform=" translate(-1360.01, -449.76)" d="M 604 875 c -282 -50 -495 -202 -570 -409 c -91 -252 88 -455 402 -456 c 142 0 265 42 382 130 c 29 22 52 36 53 32 c 1 -4 0 -23 -1 -43 c -1 -27 6 -43 29 -68 l 31 -33 l 128 5 c 70 3 144 10 165 17 c 37 11 38 13 30 43 c -4 18 -8 84 -7 147 c 1 123 17 202 76 375 c 49 144 53 147 114 93 c 68 -60 106 -139 144 -303 c 11 -49 27 -119 36 -155 c 43 -185 94 -240 222 -240 c 335 0 853 437 870 732 c 4 64 3 69 -25 97 c -17 16 -50 35 -74 41 c -61 17 -199 7 -281 -19 l -67 -21 l 31 -46 c 28 -42 30 -50 26 -117 c -3 -56 -11 -87 -37 -139 c -59 -120 -196 -248 -264 -248 c -24 0 -31 7 -47 43 c -10 23 -28 100 -40 172 c -43 267 -62 324 -119 362 c -46 31 -108 30 -229 -3 l -96 -26 l -123 17 c -105 16 -136 17 -220 6 c -83 -9 -109 -9 -168 4 c -102 23 -274 27 -371 10 z m 295 -200 c 30 -8 58 -18 64 -24 c 6 -6 0 -41 -16 -98 c -14 -48 -31 -110 -37 -136 c -16 -59 -63 -103 -169 -155 c -63 -31 -83 -36 -145 -37 c -128 0 -196 56 -196 165 c 0 202 257 350 499 285 z" stroke-linecap="round" />
</g>
		<g transform="matrix(0.13 0 0 -0.13 87.4 34.34)"  >
<path style="stroke: none; stroke-width: 1; stroke-dasharray: none; stroke-linecap: butt; stroke-dashoffset: 0; stroke-linejoin: miter; stroke-miterlimit: 4; fill: rgb(18,62,209); fill-rule: nonzero; opacity: 1;"  transform=" translate(-3575.49, -452.47)" d="M 2872 875 c -108 -20 -114 -23 -105 -48 c 4 -12 7 -65 6 -117 c -1 -91 -12 -145 -67 -325 c -8 -27 -26 -88 -40 -134 c -55 -180 -26 -221 154 -221 c 88 0 236 23 253 40 c 5 4 3 18 -4 31 c -17 33 -15 160 5 239 c 30 123 121 390 132 390 c 18 0 81 -74 107 -127 c 30 -60 49 -122 77 -248 c 47 -212 72 -274 133 -319 c 41 -31 176 -29 272 2 c 169 56 333 160 475 302 c 155 155 240 303 240 421 c 0 42 -5 55 -28 79 c -58 57 -205 68 -341 25 l -81 -26 l 28 -41 c 23 -36 27 -52 27 -113 c 0 -62 -5 -81 -37 -146 c -64 -129 -199 -255 -265 -247 c -42 5 -57 48 -94 263 c -36 216 -60 284 -111 315 c -72 44 -209 17 -329 -65 c -36 -25 -69 -45 -72 -45 c -4 0 -7 16 -7 35 c 0 66 -59 96 -185 94 c -38 -1 -103 -7 -143 -14 z" stroke-linecap="round" />
</g>
		<g transform="matrix(0.13 0 0 -0.13 296.28 34.64)"  >
<path style="stroke: none; stroke-width: 1; stroke-dasharray: none; stroke-linecap: butt; stroke-dashoffset: 0; stroke-linejoin: miter; stroke-miterlimit: 4; fill: rgb(18,62,209); fill-rule: nonzero; opacity: 1;"  transform=" translate(-5142.1, -450.2)" d="M 5033 875 c -215 -39 -398 -140 -498 -276 c -63 -86 -88 -156 -88 -255 c -1 -70 3 -89 29 -140 c 58 -117 179 -181 359 -191 c 153 -8 299 36 414 127 c 28 22 52 40 54 40 c 2 0 3 -23 3 -50 c 0 -39 5 -56 22 -73 c 21 -20 31 -22 150 -22 c 72 1 146 6 170 14 c 39 11 43 15 37 34 c -4 12 -10 63 -12 113 c -7 142 28 294 124 532 c 25 62 43 116 40 118 c -17 18 -168 27 -262 16 c -90 -10 -113 -9 -196 8 c -108 23 -239 24 -346 5 z m 296 -200 c 30 -8 58 -18 64 -24 c 6 -6 -1 -47 -22 -119 c -17 -61 -31 -118 -31 -128 c 0 -26 -76 -94 -145 -130 c -81 -43 -161 -59 -226 -45 c -96 21 -139 73 -139 168 c 1 197 261 342 499 278 z" stroke-linecap="round" />
</g>
</g>
</svg>